<svg xmlns="http://www.w3.org/2000/svg" viewBox="910 662.929 36.071 36.071">
  <defs>
    <style>
      .cls-1 {
        fill: #263238;
        fill-rule: evenodd;
      }
    </style>
  </defs>
  <g id="_1476801989_github" data-name="1476801989_github" transform="translate(910 662.929)">
    <path id="path" class="cls-1" d="M20.863,24.952c3.514-.415,7.252-1.693,7.252-7.763a6.094,6.094,0,0,0-1.6-4.218,5.7,5.7,0,0,0-.193-4.153s-1.278-.416-4.281,1.6a15.479,15.479,0,0,0-3.993-.575,15.1,15.1,0,0,0-3.994.575c-3.035-2.013-4.313-1.6-4.313-1.6a5.7,5.7,0,0,0-.191,4.153,6.089,6.089,0,0,0-1.6,4.218c0,6.07,3.738,7.348,7.252,7.763a3.543,3.543,0,0,0-1.022,2.141,3.409,3.409,0,0,1-4.633-1.31,3.257,3.257,0,0,0-2.4-1.6s-1.566-.032-.128.958a4.072,4.072,0,0,1,1.757,2.3s.958,3.036,5.367,2.077v2.715c0,.416-.319.895-1.118.767a15.767,15.767,0,1,1,10,0c-.8.16-1.118-.319-1.118-.767V27.86a3.692,3.692,0,0,0-1.054-2.908Zm15.208-6.9A18.035,18.035,0,1,0,18.052,36.071,18.046,18.046,0,0,0,36.071,18.052Z"/>
  </g>
</svg>
