<svg xmlns="http://www.w3.org/2000/svg" viewBox="869 662.929 36.071 36.071">
  <defs>
    <style>
      .cls-1 {
        fill: #263238;
      }

      .cls-2 {
        fill: #fec15b;
      }
    </style>
  </defs>
  <g id="_1476802095_social_media_logo_medium" data-name="1476802095_social_media_logo_medium" transform="translate(869 662.929)">
    <g id="group">
      <g id="group-2" data-name="group">
        <path id="path" class="cls-1" d="M18.035,0A18.035,18.035,0,1,0,36.071,18.035,18.035,18.035,0,0,0,18.035,0Z"/>
      </g>
    </g>
    <g id="group-3" data-name="group" transform="translate(7.787 9.215)">
      <path id="path-2" data-name="path" class="cls-2" d="M26.177,11.445,19.684,8.2a.228.228,0,0,0-.094-.023h-.007a.234.234,0,0,0-.2.108l-4,6.5,4.467,7.259,6.39-10.384A.153.153,0,0,0,26.177,11.445Z" transform="translate(-5.83 -8.175)"/>
      <path id="path-3" data-name="path" class="cls-2" d="M13.505,12.013v7.008l6.229,3.113Z" transform="translate(-6.069 -7.687)"/>
      <path id="path-4" data-name="path" class="cls-2" d="M19.514,22.383l5.719,2.86a.362.362,0,0,0,.568-.351V12.166Z" transform="translate(-5.304 -7.667)"/>
      <path id="path-5" data-name="path" class="cls-2" d="M13.657,11.469l-5.991-3-.379-.189a.346.346,0,0,0-.153-.041.206.206,0,0,0-.163.074.312.312,0,0,0-.062.2V22.191a.751.751,0,0,0,.379.612l5.886,2.943a.525.525,0,0,0,.23.06c.2,0,.337-.153.337-.411V11.605A.15.15,0,0,0,13.657,11.469Z" transform="translate(-6.908 -8.166)"/>
    </g>
  </g>
</svg>
