<svg xmlns="http://www.w3.org/2000/svg" viewBox="828 663 36 36">
  <defs>
    <style>
      .cls-1 {
        fill: #263238;
      }

      .cls-2 {
        fill: #fec15b;
      }
    </style>
  </defs>
  <g id="_1476815032_twitter_online_social_media" data-name="1476815032_twitter_online_social_media" transform="translate(828 663)">
    <g id="group">
      <path id="path" class="cls-1" d="M18,0A18,18,0,1,0,36,18,18,18,0,0,0,18,0Z"/>
    </g>
    <path id="path-2" data-name="path" class="cls-2" d="M19.6,8.908a4.144,4.144,0,0,0-2.791,4.167l.043.709-.716-.087A11.638,11.638,0,0,1,9.328,10.34L8.383,9.4l-.242.694a4.183,4.183,0,0,0,.888,4.284c.573.607.443.694-.543.333a1.669,1.669,0,0,0-.673-.159,5.193,5.193,0,0,0,.515,1.94,4.628,4.628,0,0,0,1.961,1.853l.7.333-.831.012c-.8,0-.83.015-.744.319a4.328,4.328,0,0,0,2.676,2.374l.888.3-.773.464A8.012,8.012,0,0,1,8.37,23.22a4.221,4.221,0,0,0-1.175.116,10.969,10.969,0,0,0,2.762,1.274,12.079,12.079,0,0,0,9.389-1.071,12.577,12.577,0,0,0,4.767-5.616,14.917,14.917,0,0,0,.973-4.34c0-.666.043-.753.844-1.548a9.626,9.626,0,0,0,1-1.114c.144-.276.128-.276-.6-.029-1.216.434-1.388.377-.786-.275a4.225,4.225,0,0,0,.973-1.548c0-.043-.215.029-.458.159a7.851,7.851,0,0,1-1.26.492l-.773.246-.7-.479a5.839,5.839,0,0,0-1.216-.637A4.888,4.888,0,0,0,19.6,8.908Z" transform="translate(0.899 1.089)"/>
  </g>
</svg>
